<svg xmlns="http://www.w3.org/2000/svg" width="265" height="40" viewBox="0 0 265 40">
  <g>
    <g>
      <polygon points="87.491 0.171 79.994 7.639 79.994 2.661 77.491 0.171 67.491 0.171 64.993 2.661 64.993 7.639 59.994 12.619 54.995 7.639 54.995 2.661 52.492 0.171 42.495 0.171 39.994 2.661 37.496 0.171 27.499 0.171 24.998 2.661 24.998 12.619 12.498 0.171 2.501 0.171 0 2.661 0 37.507 2.501 40 12.498 40 14.999 37.507 14.999 27.55 27.499 40 37.496 40 39.994 37.507 39.994 17.594 52.492 30.04 52.492 37.507 54.995 40 64.993 40 67.491 37.507 67.491 30.04 79.994 17.594 79.994 32.527 87.491 40 112.487 40 119.988 32.527 119.988 25.062 117.488 22.569 104.99 22.569 104.99 25.062 94.99 25.062 94.99 15.104 104.99 15.104 104.99 17.565 117.488 17.565 119.988 15.104 119.988 7.639 112.487 0.171 87.491 0.171"/>
      <path d="M117.8516,1.6784h.2978l.4973.7654h.3026l-.5165-.7965a.5946.5946,0,0,0,.3388-.134.4344.4344,0,0,0,.1369-.3564.4772.4772,0,0,0-.1561-.3875.7469.7469,0,0,0-.48-.1268h-.7015V2.4438h.2811Zm0-.7966h.3723a.9915.9915,0,0,1,.1442,0,.4168.4168,0,0,1,.1272.0383.2531.2531,0,0,1,.0913.0837.2745.2745,0,0,1,.0361.1435.3036.3036,0,0,1-.0409.1675.24.24,0,0,1-.1057.0884.4648.4648,0,0,1-.1513.0359h-.4732Z"/>
      <path d="M117.5729,2.9581a1.5893,1.5893,0,0,0,.6.1172,1.5727,1.5727,0,0,0,.6006-.1172,1.49,1.49,0,0,0,.4924-.323,1.5194,1.5194,0,0,0,.3339-.4784,1.4786,1.4786,0,0,0,.1249-.6194A1.47,1.47,0,0,0,119.6.93,1.5471,1.5471,0,0,0,118.1734.004a1.5457,1.5457,0,0,0-.6.1171,1.5777,1.5777,0,0,0-.4948.33,1.5268,1.5268,0,0,0-.3387.4784,1.5086,1.5086,0,0,0-.1249.6123,1.5182,1.5182,0,0,0,.1249.6147A1.5391,1.5391,0,0,0,117.5729,2.9581Zm-.5668-1.9376a1.3055,1.3055,0,0,1,.2665-.4138,1.3345,1.3345,0,0,1,.4084-.275,1.2757,1.2757,0,0,1,1.41.275,1.2733,1.2733,0,0,1,.269.4138,1.3677,1.3677,0,0,1,.0985.5168,1.3845,1.3845,0,0,1-.0985.5238,1.2676,1.2676,0,0,1-.269.4186,1.2418,1.2418,0,0,1-.4156.2775,1.2829,1.2829,0,0,1-1.0065,0,1.2575,1.2575,0,0,1-.4083-.2775,1.3005,1.3005,0,0,1-.2667-.4186,1.3866,1.3866,0,0,1-.0865-.5238A1.3639,1.3639,0,0,1,117.0061,1.0205Z"/>
    </g>
    <g>
      <path d="M129.8049,0h2.4957v10.081h-2.4957Z"/>
      <path d="M133.7278,2.8627h2.2136V3.85h.0423a2.53,2.53,0,0,1,2.2283-1.1982,2.4624,2.4624,0,0,1,2.5094,2.7355v4.6945h-2.2981v-4.23c0-.7618-.38-1.2827-1.1284-1.2827a1.3474,1.3474,0,0,0-1.269,1.5225v3.99h-2.2981Z"/>
      <path d="M142.2971,4.3292h-.93V2.8627h.93v-.522A2.27,2.27,0,0,1,142.89.6629a3.9766,3.9766,0,0,1,3.06-.62V1.6645c-.8749-.0285-1.3545.0423-1.3545.8453v.3529H145.95V4.3292h-1.3545v5.7522h-2.2981Z"/>
      <path d="M146.2485,6.4858a3.8562,3.8562,0,0,1,7.7121,0,3.8562,3.8562,0,0,1-7.7121,0Zm5.3855,0c0-1.3112-.5357-2.1988-1.5373-2.1988s-1.5226.8876-1.5226,2.1988.5219,2.186,1.5226,2.186S151.634,7.797,151.634,6.4858Z"/>
      <path d="M154.8944,2.8627h2.2V3.9911h.0423A2.1323,2.1323,0,0,1,159.11,2.75a1.2014,1.2014,0,0,1,.4512.057V4.78h-.0561a1.8394,1.8394,0,0,0-2.3128,2.0583v3.2427h-2.2981Z"/>
      <path d="M160.2779,2.8627h2.2V3.8918h.0423a2.4076,2.4076,0,0,1,2.1851-1.24A2.1625,2.1625,0,0,1,166.7358,3.92h.0285a2.5651,2.5651,0,0,1,2.27-1.2689c1.6356,0,2.4534,1.1136,2.4534,2.7355v4.6945h-2.2981V5.7958c0-.7756-.3243-1.2267-1.0153-1.2267-.7333,0-1.1422.6055-1.1422,1.4655v4.0468h-2.2981V5.7958c0-.7756-.3244-1.2267-1.0154-1.2267-.7185,0-1.1422.6055-1.1422,1.4655v4.0468h-2.2981Z"/>
      <path d="M172.3759,8.0654c0-1.5934,1.269-2.073,2.764-2.27,1.3535-.17,1.8322-.3106,1.8322-.8041,0-.4649-.2958-.7755-.9868-.7755-.7333,0-1.1.3244-1.17.9308H172.7c.056-1.34,1.0861-2.4819,3.2712-2.4819a3.7563,3.7563,0,0,1,2.34.5927,2.3908,2.3908,0,0,1,.9161,2.0583V8.953c0,.5789.057.9023.2536,1.03v.0983h-2.2274a2.0227,2.0227,0,0,1-.24-.8041h-.0275a2.3739,2.3739,0,0,1-2.1438.9869A2.18,2.18,0,0,1,172.3759,8.0654Zm4.6532-.5642v-.86a5.5485,5.5485,0,0,1-1.1844.38c-.8886.1976-1.2552.4236-1.2552.9731,0,.578.4227.804.9869.804A1.3125,1.3125,0,0,0,177.0291,7.5012Z"/>
      <path d="M180.8518,8.1784V4.3007h-.9584V2.8627h.9584V.5783h2.2421V2.8627h1.3112v1.438h-1.3112V7.685c0,.5632.31.7047.803.7047.1976,0,.4237-.0147.5082-.0147v1.6779a5.27,5.27,0,0,1-1.2552.113C181.8111,10.1659,180.8518,9.7285,180.8518,8.1784Z"/>
      <path d="M185.4185,0h2.2981V1.8621h-2.2981Zm0,2.8623h2.2981v7.2187h-2.2981Z"/>
      <path d="M188.6327,6.4858a3.8562,3.8562,0,0,1,7.7121,0,3.8562,3.8562,0,0,1-7.7121,0Zm5.3855,0c0-1.3112-.5357-2.1988-1.5373-2.1988s-1.5226.8876-1.5226,2.1988.522,2.186,1.5226,2.186S194.0182,7.797,194.0182,6.4858Z"/>
      <path d="M197.2786,2.8627h2.2136V3.85h.0423a2.53,2.53,0,0,1,2.2283-1.1982,2.4624,2.4624,0,0,1,2.5094,2.7355v4.6945h-2.2981v-4.23c0-.7618-.38-1.2827-1.1284-1.2827a1.3474,1.3474,0,0,0-1.269,1.5225v3.99h-2.2981Z"/>
      <path d="M132.2721,16.9619H129.34V14.8467h8.3884v2.1152h-2.9606v7.9657h-2.4957Z"/>
      <path d="M137.0207,21.3045a3.6335,3.6335,0,0,1,3.7086-3.8069,3.5483,3.5483,0,0,1,2.4672.9024,4.5938,4.5938,0,0,1,1.2689,3.51h-5.1879a1.5919,1.5919,0,0,0,1.6209,1.58,1.1986,1.1986,0,0,0,1.1982-.7195h2.242a2.9381,2.9381,0,0,1-1.2129,1.7064,3.8163,3.8163,0,0,1-2.2559.6625A3.6514,3.6514,0,0,1,137.0207,21.3045Zm5.1181-.7617a1.3948,1.3948,0,0,0-1.3672-1.41c-.8739,0-1.325.55-1.48,1.41Z"/>
      <path d="M145.0454,21.3321a3.6459,3.6459,0,0,1,3.7794-3.8207,3.1726,3.1726,0,0,1,3.4255,2.764h-2.2136a1.1888,1.1888,0,0,0-1.1844-1.0724c-.9869,0-1.48.8178-1.48,2.1291,0,1.2837.4934,2.1015,1.48,2.1015.7195,0,1.1569-.4237,1.2552-1.2415h2.2a3.1432,3.1432,0,0,1-3.4265,2.9616A3.6683,3.6683,0,0,1,145.0454,21.3321Z"/>
      <path d="M153.1978,14.8467h2.2981v3.7508h.0423a2.5576,2.5576,0,0,1,4.6532,1.6356v4.6945h-2.2981v-4.23c0-.7618-.38-1.2828-1.1284-1.2828a1.3475,1.3475,0,0,0-1.269,1.5226v3.99h-2.2981Z"/>
      <path d="M161.428,17.709h2.2135v.9868h.0423a2.53,2.53,0,0,1,2.2283-1.1982,2.4625,2.4625,0,0,1,2.51,2.7355v4.6945h-2.2981v-4.23c0-.7618-.38-1.2828-1.1285-1.2828a1.3475,1.3475,0,0,0-1.2689,1.5226v3.99H161.428Z"/>
      <path d="M169.2767,21.3321a3.8562,3.8562,0,0,1,7.7121,0,3.8562,3.8562,0,0,1-7.7121,0Zm5.3855,0c0-1.3113-.5357-2.1989-1.5373-2.1989s-1.5226.8876-1.5226,2.1989.522,2.186,1.5226,2.186S174.6622,22.6433,174.6622,21.3321Z"/>
      <path d="M177.9462,14.8467h2.3256V24.9276h-2.3256Z"/>
      <path d="M181.2017,21.3321a3.8562,3.8562,0,0,1,7.7121,0,3.8562,3.8562,0,0,1-7.7121,0Zm5.3855,0c0-1.3113-.5357-2.1989-1.5373-2.1989s-1.5226.8876-1.5226,2.1989.522,2.186,1.5226,2.186S186.5872,22.6433,186.5872,21.3321Z"/>
      <path d="M189.6481,25.0967h2.2283c.1268.38.5072.7048,1.269.7048a1.2184,1.2184,0,0,0,1.381-1.381v-.72h-.056a2.3008,2.3008,0,0,1-1.847.8316,3.158,3.158,0,0,1-3.13-3.4255c0-2.1153,1.24-3.6094,3.03-3.6094a2.3148,2.3148,0,0,1,2.0308.9869h.0285V17.709h2.1988v6.5139a3.0942,3.0942,0,0,1-.9583,2.3964,3.9457,3.9457,0,0,1-2.651.804C191.1854,27.4233,189.8742,26.6055,189.6481,25.0967Zm4.9776-4.0743c0-.9731-.5082-1.7909-1.4666-1.7909-.86,0-1.4242.7048-1.4242,1.8047,0,1.0861.5642,1.7909,1.4242,1.7909C194.16,22.8271,194.6257,22.0378,194.6257,21.0224Z"/>
      <path d="M198.23,25.5194h.79c.6762,0,.9446-.2674.9446-.7608a4.8609,4.8609,0,0,0-.4374-1.4951l-2.1291-5.5545h2.4249l.9731,3.0736c.2251.7048.4512,1.6641.4512,1.6641h.0275s.1976-.9593.4237-1.6641l.9446-3.0736h2.2981l-2.4957,7.3169c-.578,1.6927-1.269,2.2844-2.7208,2.2844H198.23Z"/>
      <path d="M207.6712,22.1361a3.1945,3.1945,0,0,1,2.2273-2.9468,2.9157,2.9157,0,0,1-.7755-1.9453,2.5319,2.5319,0,0,1,2.8338-2.4534c1.6494,0,2.8476.9309,2.8476,2.4249a2.6555,2.6555,0,0,1-1.8607,2.4112l1.2129,1.5225a5.7506,5.7506,0,0,0,.38-1.2689h1.9875a6.1961,6.1961,0,0,1-1.0989,2.876l1.7339,2.1713h-2.8053l-.4944-.6339a4.784,4.784,0,0,1-2.6078.803C208.9117,25.0967,207.6712,23.814,207.6712,22.1361Zm5.0474.6763-1.7064-2.2136a1.6464,1.6464,0,0,0-.9584,1.4813,1.184,1.184,0,0,0,1.2965,1.17A2.3911,2.3911,0,0,0,212.7186,22.8124Zm.0422-5.5831a.7422.7422,0,0,0-.748-.7755.7287.7287,0,0,0-.7608.7755,1.7451,1.7451,0,0,0,.7048,1.2129A1.3684,1.3684,0,0,0,212.7608,17.2293Z"/>
      <path d="M132.2721,31.8082H129.34V29.6929h8.3884v2.1153h-2.9606v7.9657h-2.4957Z"/>
      <path d="M137.0207,36.1508a3.6335,3.6335,0,0,1,3.7086-3.8069,3.5483,3.5483,0,0,1,2.4672.9023,4.5941,4.5941,0,0,1,1.2689,3.51h-5.1879a1.5919,1.5919,0,0,0,1.6209,1.58,1.1987,1.1987,0,0,0,1.1982-.72h2.242a2.9384,2.9384,0,0,1-1.2129,1.7064,3.8163,3.8163,0,0,1-2.2559.6625A3.6514,3.6514,0,0,1,137.0207,36.1508Zm5.1181-.7618a1.3948,1.3948,0,0,0-1.3672-1.41c-.8739,0-1.325.55-1.48,1.41Z"/>
      <path d="M145.4081,29.6929h2.3256v10.081h-2.3256Z"/>
      <path d="M148.68,36.1508a3.6327,3.6327,0,0,1,3.7076-3.8069,3.5483,3.5483,0,0,1,2.4672.9023,4.5941,4.5941,0,0,1,1.2689,3.51h-5.1889a1.5935,1.5935,0,0,0,1.6219,1.58,1.1987,1.1987,0,0,0,1.1982-.72h2.242a2.9384,2.9384,0,0,1-1.2129,1.7064,3.8162,3.8162,0,0,1-2.2558.6625A3.6507,3.6507,0,0,1,148.68,36.1508Zm5.1171-.7618a1.3948,1.3948,0,0,0-1.3672-1.41c-.8739,0-1.325.55-1.48,1.41Z"/>
      <path d="M156.705,36.1783a3.645,3.645,0,0,1,3.7784-3.8206,3.1725,3.1725,0,0,1,3.4255,2.764h-2.2136a1.1887,1.1887,0,0,0-1.1844-1.0724c-.9869,0-1.48.8178-1.48,2.129,0,1.2838.4934,2.1016,1.48,2.1016.72,0,1.1559-.4237,1.2552-1.2415h2.2A3.1432,3.1432,0,0,1,160.5394,40,3.6676,3.6676,0,0,1,156.705,36.1783Z"/>
      <path d="M164.5036,36.1783A3.8567,3.8567,0,1,1,168.3675,40,3.6985,3.6985,0,0,1,164.5036,36.1783Zm5.3865,0c0-1.3112-.5357-2.1988-1.5373-2.1988s-1.5226.8876-1.5226,2.1988.5219,2.1861,1.5226,2.1861S169.89,37.49,169.89,36.1783Z"/>
      <path d="M173.1515,32.5552h2.2v1.0292h.0422a2.4075,2.4075,0,0,1,2.1851-1.2405,2.1624,2.1624,0,0,1,2.0307,1.269h.0286a2.5649,2.5649,0,0,1,2.27-1.269c1.6356,0,2.4534,1.1137,2.4534,2.7355v4.6945h-2.2981V35.4883c0-.7755-.3244-1.2267-1.0154-1.2267-.7333,0-1.1422.6055-1.1422,1.4656v4.0467h-2.2981V35.4883c0-.7755-.3244-1.2267-1.0154-1.2267-.7185,0-1.1421.6055-1.1421,1.4656v4.0467h-2.2981Z"/>
      <path d="M185.6151,32.5552h2.2v1.0292h.0423a2.4072,2.4072,0,0,1,2.185-1.2405,2.1626,2.1626,0,0,1,2.0308,1.269h.0285a2.5649,2.5649,0,0,1,2.27-1.269c1.6356,0,2.4534,1.1137,2.4534,2.7355v4.6945h-2.2981V35.4883c0-.7755-.3244-1.2267-1.0154-1.2267-.7333,0-1.1422.6055-1.1422,1.4656v4.0467h-2.2981V35.4883c0-.7755-.3243-1.2267-1.0153-1.2267-.7186,0-1.1422.6055-1.1422,1.4656v4.0467h-2.2981Z"/>
      <path d="M198.0119,37.293V32.5552h2.2843v4.2581c0,.7893.3519,1.2267,1.0852,1.2267a1.2848,1.2848,0,0,0,1.269-1.4528v-4.032h2.2981v7.2187H202.75v-.8886h-.0432a2.4639,2.4639,0,0,1-2.1566,1.1A2.4063,2.4063,0,0,1,198.0119,37.293Z"/>
      <path d="M206.2253,32.5552h2.2136v.9869h.0422a2.53,2.53,0,0,1,2.2284-1.1982,2.4624,2.4624,0,0,1,2.5094,2.7355v4.6945h-2.2981v-4.23c0-.7617-.38-1.2827-1.1284-1.2827a1.3475,1.3475,0,0,0-1.269,1.5226v3.99h-2.2981Z"/>
      <path d="M214.4594,29.6929h2.2981v1.8617h-2.2981Zm0,2.8623h2.2981v7.2187h-2.2981Z"/>
      <path d="M217.6981,36.1783a3.6451,3.6451,0,0,1,3.7784-3.8206,3.1726,3.1726,0,0,1,3.4256,2.764h-2.2136a1.1888,1.1888,0,0,0-1.1844-1.0724c-.9869,0-1.48.8178-1.48,2.129,0,1.2838.4934,2.1016,1.48,2.1016.72,0,1.1559-.4237,1.2552-1.2415h2.2A3.1432,3.1432,0,0,1,221.5326,40,3.6677,3.6677,0,0,1,217.6981,36.1783Z"/>
      <path d="M225.5046,37.7579c0-1.5933,1.269-2.073,2.764-2.27,1.3535-.17,1.8322-.3106,1.8322-.804,0-.465-.2958-.7756-.9868-.7756-.7333,0-1.1.3244-1.17.9309H225.829c.056-1.34,1.0861-2.4819,3.2712-2.4819a3.7556,3.7556,0,0,1,2.34.5927,2.39,2.39,0,0,1,.9161,2.0582v3.6369c0,.579.057.9023.2536,1.03v.0983h-2.2274a2.0226,2.0226,0,0,1-.24-.804h-.0275a2.3739,2.3739,0,0,1-2.1438.9869A2.18,2.18,0,0,1,225.5046,37.7579Zm4.6532-.5642v-.86a5.5372,5.5372,0,0,1-1.1844.38c-.8886.1976-1.2552.4237-1.2552.9732,0,.5779.4227.804.9869.804A1.3126,1.3126,0,0,0,230.1578,37.1937Z"/>
      <path d="M233.9815,37.871V33.9933h-.9584V32.5552h.9584V30.2709h2.242v2.2843h1.3113v1.4381h-1.3113v3.3842c0,.5632.31.7048.8031.7048.1976,0,.4237-.0148.5082-.0148v1.6779a5.2688,5.2688,0,0,1-1.2552.1131C234.9408,39.8585,233.9815,39.4211,233.9815,37.871Z"/>
      <path d="M238.5482,29.6929h2.2981v1.8617h-2.2981Zm0,2.8623h2.2981v7.2187h-2.2981Z"/>
      <path d="M241.76,36.1783A3.8567,3.8567,0,1,1,245.6244,40,3.6986,3.6986,0,0,1,241.76,36.1783Zm5.3865,0c0-1.3112-.5357-2.1988-1.5373-2.1988s-1.5226.8876-1.5226,2.1988.522,2.1861,1.5226,2.1861S247.1469,37.49,247.1469,36.1783Z"/>
      <path d="M250.4083,32.5552h2.2136v.9869h.0422a2.53,2.53,0,0,1,2.2284-1.1982,2.4624,2.4624,0,0,1,2.5094,2.7355v4.6945h-2.2981v-4.23c0-.7617-.38-1.2827-1.1284-1.2827a1.3475,1.3475,0,0,0-1.269,1.5226v3.99h-2.2981Z"/>
      <path d="M258.205,37.4336h2.1713a1.1669,1.1669,0,0,0,1.325,1.0714c.691,0,1.1274-.2536,1.1274-.7186,0-.6487-.8738-.72-1.8322-.8885-1.2552-.2114-2.594-.55-2.594-2.2421,0-1.5226,1.41-2.3119,3.1159-2.3119,2.0436,0,3.1435.8876,3.2565,2.3119H262.66c-.0845-.6488-.5209-.8454-1.1559-.8454-.5642,0-1.0006.2114-1.0006.6625,0,.5072.8178.578,1.7339.7471,1.2689.2113,2.763.5357,2.763,2.3826,0,1.58-1.3958,2.3974-3.285,2.3974C259.6007,40,258.2747,39.0269,258.205,37.4336Z"/>
    </g>
  </g>
</svg>
