<svg xmlns="http://www.w3.org/2000/svg" width="168" height="42" viewBox="0 0 168 42">
  <g>
    <path d="M48.3085,27.6187l.01-10.155c.0014-.0683.01-.1348.01-.2034,0-.0661-.0087-.13-.01-.1958l.01-10.1581L43.726,6.9019l-.0016,1.7522a10.3566,10.3566,0,1,0-.0169,17.2227l-.0017,1.7374Zm-10.3359-4.605a5.7535,5.7535,0,1,1,5.7434-5.8526l0,.2A5.7547,5.7547,0,0,1,37.9726,23.0137Z" fill="#00a870"/>
    <path d="M77.0959,27.6164a10.2952,10.2952,0,0,0,5.7534-1.7509v1.7509H87.452V6.9041H82.8493V17.26a5.7534,5.7534,0,0,1-11.5068,0V6.9041H66.74V17.26A10.3675,10.3675,0,0,0,77.0959,27.6164Z" fill="#00a870"/>
    <path d="M59.8356,2.3013H55.2328V6.9041H50.63v4.6027h4.6027V20.71a6.9,6.9,0,0,0,6.9042,6.9063h2.3014V23.0137H62.137a2.2962,2.2962,0,0,1-2.3014-2.3014V11.5068h4.6028V6.9041H59.8356Z" fill="#00a870"/>
    <path d="M95.5068,27.6187l.01-10.46a5.7547,5.7547,0,0,1,5.7433-5.6524V6.9041a10.2935,10.2935,0,0,0-5.7349,1.74l.0017-1.7375-4.6028-.0045-.01,10.155c-.0013.0683-.01.1347-.01.2034h.01l-.01,10.3539Z" fill="#00a870"/>
    <polygon points="20.712 20.712 5.178 0 0 0 0 27.616 4.603 27.616 4.603 6.904 20.137 27.616 25.315 27.616 25.315 0 20.712 0 20.712 20.712" fill="#00a870"/>
  </g>
  <g>
    <path d="M118.5,27.6142l4.6028.0045.01-10.155c.0013-.0683.01-.1348.01-.2034,0-.0661-.0087-.13-.01-.1958l.01-10.1581-4.6027-.0045-.0017,1.7522a10.3566,10.3566,0,1,0-.0169,17.2227Zm-5.7331-4.6a5.7535,5.7535,0,1,1,5.7433-5.8526l0,.2A5.7547,5.7547,0,0,1,112.7672,23.0137Z" fill="#00a870"/>
    <polygon points="127.726 27.616 132.329 27.616 132.329 0 123.123 0 123.123 4.603 127.726 4.603 127.726 27.616" fill="#00a870"/>
    <polygon points="143.836 27.616 143.836 0 134.63 0 134.63 4.603 139.233 4.603 139.233 27.616 143.836 27.616" fill="#00a870"/>
    <polygon points="168 6.904 163.062 6.904 157.476 21.267 151.89 6.904 146.952 6.904 155.007 27.617 151.427 36.822 156.365 36.822 160.455 26.306 160.455 26.306 168 6.904" fill="#00a870"/>
  </g>
  <g>
    <path d="M0,41.8916V32.4688H1.9033v9.4228Z" fill="#00a870"/>
    <path d="M6.2666,34.4131v1.12a2.4813,2.4813,0,0,1,2.3213-1.2285,2.7716,2.7716,0,0,1,2.0928.8437,3.2446,3.2446,0,0,1,.81,2.3428v4.4H9.6006V37.7607a1.868,1.868,0,0,0-.4453-1.3427A1.6016,1.6016,0,0,0,7.94,35.9521a1.6244,1.6244,0,0,0-1.2216.4659,1.8486,1.8486,0,0,0-.4522,1.3427v4.1309H4.3633V34.4131Z" fill="#00a870"/>
    <path d="M14.4014,40.9473a4.3186,4.3186,0,0,1,0-5.59,3.55,3.55,0,0,1,2.6591-1.0527,3.8012,3.8012,0,0,1,2.2823.6621,3.2047,3.2047,0,0,1,1.2285,1.876H18.5186a1.4164,1.4164,0,0,0-1.4581-.9317,1.54,1.54,0,0,0-1.289.6006,3.1223,3.1223,0,0,0,0,3.2813,1.54,1.54,0,0,0,1.289.6006,1.4312,1.4312,0,0,0,1.4581-.9454h2.0527a3.37,3.37,0,0,1-1.249,1.8633A3.68,3.68,0,0,1,17.0605,42,3.5507,3.5507,0,0,1,14.4014,40.9473Z" fill="#00a870"/>
    <path d="M22.4424,41.8916v-9.99h1.9033v9.99Z" fill="#00a870"/>
    <path d="M31.9121,34.4131h1.9043v7.4785H31.9121V40.7578a2.4914,2.4914,0,0,1-2.335,1.2285,2.7546,2.7546,0,0,1-2.0791-.8437,3.2421,3.2421,0,0,1-.8105-2.3418V34.4131h1.8906V38.53a1.8925,1.8925,0,0,0,.4453,1.35,1.5883,1.5883,0,0,0,1.2149.4726A1.6111,1.6111,0,0,0,31.46,39.88a1.8731,1.8731,0,0,0,.4521-1.35Z" fill="#00a870"/>
    <path d="M35.8623,36.6a2.0191,2.0191,0,0,1,.8232-1.6328A3.96,3.96,0,0,1,41.06,34.96a2.3,2.3,0,0,1,.8779,1.7744H39.9932q-.0806-.9434-1.1612-.9444a1.4083,1.4083,0,0,0-.8369.2159.6941.6941,0,0,0-.2969.5937.66.66,0,0,0,.4454.5938,4.3448,4.3448,0,0,0,1.08.3378q.6344.1217,1.2627.3038a2.3822,2.3822,0,0,1,1.0733.6484,1.7125,1.7125,0,0,1,.4453,1.2354,1.96,1.96,0,0,1-.8574,1.6464,4.0918,4.0918,0,0,1-4.3672.0069,2.3158,2.3158,0,0,1-.9317-1.8018H37.793q.107.9449,1.2011.9443a1.4042,1.4042,0,0,0,.8506-.2363.7335.7335,0,0,0,.3242-.6211.6769.6769,0,0,0-.4453-.6074,4.1811,4.1811,0,0,0-1.08-.3437c-.4239-.0811-.8438-.18-1.2627-.2969a2.379,2.379,0,0,1-1.0733-.628A1.6118,1.6118,0,0,1,35.8623,36.6Z" fill="#00a870"/>
    <path d="M46.1328,32.51a1.152,1.152,0,1,1-.3379-.8243A1.1185,1.1185,0,0,1,46.1328,32.51Zm-2.1055,9.3818V34.4131h1.9034v7.4785Z" fill="#00a870"/>
    <path d="M47.44,34.4131h2.0253l1.93,5.8457,1.917-5.8457h2.0254L52.583,41.8916h-2.39Z" fill="#00a870"/>
    <path d="M59.8174,42a3.5372,3.5372,0,0,1-2.6592-1.06,3.856,3.856,0,0,1-1.0264-2.8017,3.7927,3.7927,0,0,1,1.0323-2.7871,3.59,3.59,0,0,1,2.6738-1.0469,3.71,3.71,0,0,1,2.6924,1.02,3.6111,3.6111,0,0,1,1.0537,2.72,4.6015,4.6015,0,0,1-.0547.73H58.0762a1.776,1.776,0,0,0,.54,1.1748,1.68,1.68,0,0,0,1.2012.4454,1.5742,1.5742,0,0,0,1.458-.8106h2.0517a3.2848,3.2848,0,0,1-1.2558,1.7422A3.7338,3.7338,0,0,1,59.8174,42Zm1.249-5.6436a1.7878,1.7878,0,0,0-1.2217-.4453,1.6886,1.6886,0,0,0-1.1953.4453,1.888,1.888,0,0,0-.5732,1.1885h3.5361A1.6316,1.6316,0,0,0,61.0664,36.3564Z" fill="#00a870"/>
    <path d="M68.5986,41.8916V32.4688h5.8321v1.458H70.502v2.4707h2.997v1.458H70.502v4.0361Z" fill="#00a870"/>
    <path d="M77.9209,34.4131v1.3232a2.3718,2.3718,0,0,1,2.1865-1.4316V36.249h-.4726a1.7588,1.7588,0,0,0-1.2823.4248,2.0158,2.0158,0,0,0-.4316,1.4649v3.7529H76.0176V34.4131Z" fill="#00a870"/>
    <path d="M82.35,40.9131a4.3218,4.3218,0,0,1-.0068-5.5352,3.3163,3.3163,0,0,1,2.5381-1.0732,2.6187,2.6187,0,0,1,2.35,1.27V34.4131h1.89v7.4785h-1.89V40.6367A2.65,2.65,0,0,1,84.8672,42,3.2876,3.2876,0,0,1,82.35,40.9131Zm4.2861-1.1475a2.4852,2.4852,0,0,0,0-3.2265,1.9394,1.9394,0,0,0-2.7734-.0069,2.1569,2.1569,0,0,0-.5879,1.6065,2.1865,2.1865,0,0,0,.5947,1.62,1.916,1.916,0,0,0,2.7666.0068Z" fill="#00a870"/>
    <path d="M93.4238,34.4131v1.12a2.4829,2.4829,0,0,1,2.3223-1.2285,2.9476,2.9476,0,0,1,1.5185.3916,2.6285,2.6285,0,0,1,1.0333,1.12A2.9048,2.9048,0,0,1,99.3711,34.71a2.9359,2.9359,0,0,1,1.5322-.4053,2.8754,2.8754,0,0,1,2.1533.8369,3.2269,3.2269,0,0,1,.8164,2.35v4.4h-1.89V37.7607a1.8635,1.8635,0,0,0-.4463-1.3427,1.6,1.6,0,0,0-1.2148-.4659,1.6246,1.6246,0,0,0-1.2217.4659,1.8486,1.8486,0,0,0-.4522,1.3427v4.1309h-1.89V37.7607a1.8676,1.8676,0,0,0-.4453-1.3427,1.6039,1.6039,0,0,0-1.2158-.4659,1.6246,1.6246,0,0,0-1.2217.4659,1.8486,1.8486,0,0,0-.4522,1.3427v4.1309H91.5205V34.4131Z" fill="#00a870"/>
    <path d="M109.3076,42a3.5374,3.5374,0,0,1-2.6592-1.06,3.86,3.86,0,0,1-1.0263-2.8017,3.7933,3.7933,0,0,1,1.0332-2.7871,3.5883,3.5883,0,0,1,2.6728-1.0469,3.712,3.712,0,0,1,2.6934,1.02,3.61,3.61,0,0,1,1.0527,2.72,4.6061,4.6061,0,0,1-.0537.73h-5.4541a1.776,1.776,0,0,0,.54,1.1748,1.6831,1.6831,0,0,0,1.2012.4454,1.5721,1.5721,0,0,0,1.458-.8106h2.0528a3.29,3.29,0,0,1-1.2559,1.7422A3.7387,3.7387,0,0,1,109.3076,42Zm1.249-5.6436a1.7875,1.7875,0,0,0-1.2216-.4453,1.6862,1.6862,0,0,0-1.1944.4453,1.884,1.884,0,0,0-.5742,1.1885h3.5371A1.6321,1.6321,0,0,0,110.5566,36.3564Z" fill="#00a870"/>
    <path d="M123.36,34.4131h1.8222l-2.2949,7.4785h-2.0254L119.58,36.87l-1.2959,5.0215h-2.0254l-2.2949-7.4785h1.917l1.3769,5.6836,1.377-5.6836h1.998l1.35,5.67Z" fill="#00a870"/>
    <path d="M127.126,40.9336a3.73,3.73,0,0,1-1.0928-2.7949,3.6644,3.6644,0,0,1,1.1064-2.7813,4.112,4.112,0,0,1,5.4952,0,4.057,4.057,0,0,1-.0069,5.5762A3.8386,3.8386,0,0,1,129.8672,42,3.769,3.769,0,0,1,127.126,40.9336Zm2.7412-.54a1.8507,1.8507,0,0,0,1.37-.5879,2.6935,2.6935,0,0,0,.0068-3.3135,1.8469,1.8469,0,0,0-1.37-.5811,1.8043,1.8043,0,0,0-1.3574.5811,2.77,2.77,0,0,0,0,3.32A1.7935,1.7935,0,0,0,129.8672,40.3936Z" fill="#00a870"/>
    <path d="M137.57,34.4131v1.3232a2.3718,2.3718,0,0,1,2.1865-1.4316V36.249h-.4726a1.7584,1.7584,0,0,0-1.2822.4248,2.0153,2.0153,0,0,0-.4317,1.4649v3.7529H135.667V34.4131Z" fill="#00a870"/>
    <path d="M143.3008,41.8916h-1.9033v-9.99h1.9033v5.7109l2.5244-3.1992h2.5791l-3.3213,3.7793,3.3213,3.6992h-2.5381l-2.5654-3.1182Z" fill="#00a870"/>
  </g>
</svg>
